<?xml version="1.0" encoding="UTF-8"?>
<svg width="85px" height="41px" viewBox="0 0 85 41" version="1.1" xmlns="http://www.w3.org/2000/svg" xmlns:xlink="http://www.w3.org/1999/xlink">
    <!-- Generator: Sketch 48.2 (47327) - http://www.bohemiancoding.com/sketch -->
    <title>client_logo_tnf</title>
    <desc>Created with Sketch.</desc>
    <defs></defs>
    <g id="About-Us" stroke="none" stroke-width="1" fill="none" fill-rule="evenodd" transform="translate(-533.000000, -3377.000000)">
        <g id="Our-Clients" transform="translate(0.000000, 3096.000000)" fill="#FFFFFF" fill-rule="nonzero">
            <g id="Client-Logos" transform="translate(217.000000, 273.000000)">
                <g id="client_logo_tnf" transform="translate(316.000000, 8.000000)">
                    <polygon id="Shape" points="30 12.7 27.6 12.7 27.6 3 24 3 24 0.9 33.6 0.9 33.6 3 30 3"></polygon>
                    <polygon id="Shape" points="36.9 7.4 36.9 12.7 34.5 12.7 34.5 0.9 36.9 0.9 36.9 5.4 41.5 5.4 41.5 0.9 44 0.9 44 12.7 41.5 12.7 41.5 7.4"></polygon>
                    <polygon id="Shape" points="53.6 3 47.4 3 47.4 5.5 52.8 5.5 52.8 7.5 47.4 7.5 47.4 10.6 53.6 10.6 53.6 12.7 45.1 12.7 45.1 0.9 53.6 0.9"></polygon>
                    <polygon id="Shape" points="7.5 14.5 9.8 14.5 9.8 26.3 7.3 26.3 2.5 17.9 2.5 17.9 2.5 26.3 0.2 26.3 0.2 14.5 2.8 14.5 7.4 22.7 7.5 22.7"></polygon>
                    <path d="M16.6,24.5 C17.9,24.5 19.8,23.7 19.8,20.4 C19.8,17.1 17.9,16.3 16.6,16.3 C15.3,16.3 13.4,17.1 13.4,20.4 C13.3,23.7 15.2,24.5 16.6,24.5 M16.6,14.2 C18.2,14.2 22.3,14.9 22.3,20.4 C22.3,25.9 18.2,26.6 16.6,26.6 C15,26.6 10.9,25.9 10.9,20.4 C10.9,14.9 15,14.2 16.6,14.2" id="Shape"></path>
                    <polygon id="Shape" points="39.6 26.3 37.1 26.3 37.1 16.6 33.6 16.6 33.6 14.5 43.1 14.5 43.1 16.6 39.6 16.6"></polygon>
                    <polygon id="Shape" points="46.5 21 46.5 26.3 44 26.3 44 14.5 46.5 14.5 46.5 19 51.1 19 51.1 14.5 53.6 14.5 53.6 26.3 51.1 26.3 51.1 21"></polygon>
                    <path d="M28.5,19.7 C29.8,19.7 30.4,19.3 30.4,18.1 C30.4,17.5 30.1,16.6 28.7,16.6 L25.6,16.6 L25.6,19.8 L28.5,19.8 L28.5,19.7 Z M23.2,14.5 L29.2,14.5 C32.3,14.5 32.9,16.8 32.9,17.8 C32.9,19.1 32.2,20.2 31.1,20.6 C32.1,21 32.6,21.4 32.6,23.6 C32.6,25.3 32.6,25.8 33.1,25.9 L33.1,26.2 L30.4,26.2 C30.2,25.6 30.1,25 30.1,23.8 C30.1,22.2 30,21.6 28.2,21.6 L25.7,21.6 L25.7,26.2 L23.3,26.2 L23.3,14.5 L23.2,14.5 Z" id="Shape"></path>
                    <polygon id="Shape" points="17.5 40.3 15 40.3 15 28.2 23.6 28.2 23.6 30.3 17.5 30.3 17.5 33 22.9 33 22.9 35.2 17.5 35.2"></polygon>
                    <path d="M26.3,35.7 L29.4,35.7 L27.9,30.9 L26.3,35.7 Z M24.8,40.3 L22.1,40.3 L26.4,28.2 L29.3,28.2 L33.6,40.3 L30.8,40.3 L30,37.8 L25.5,37.8 L24.8,40.3 Z" id="Shape"></path>
                    <path d="M41.4,32.2 C41.2,31.5 40.8,30.1 38.7,30.1 C37.5,30.1 35.7,30.9 35.7,34.3 C35.7,36.5 36.6,38.4 38.7,38.4 C40.1,38.4 41.1,37.6 41.4,36.1 L43.9,36.1 C43.4,38.7 41.7,40.6 38.6,40.6 C35.4,40.6 33.1,38.4 33.1,34.2 C33.1,30 35.5,27.8 38.7,27.8 C42.3,27.8 43.8,30.3 43.9,32.1 L41.4,32.1 L41.4,32.2 Z" id="Shape"></path>
                    <polygon id="Shape" points="53.6 30.3 47.2 30.3 47.2 32.9 52.9 32.9 52.9 35 47.2 35 47.2 38.1 53.6 38.1 53.6 40.3 44.9 40.3 44.9 28.2 53.6 28.2"></polygon>
                    <path d="M9.8,37.2 L10.4,37.2 C10.9,37.2 11.4,37.2 11.4,36.6 C11.4,36.1 11,36 10.6,36 L9.8,36 L9.8,37.2 Z M9.2,35.5 L10.7,35.5 C11.6,35.5 12,35.9 12,36.6 C12,37.3 11.6,37.6 11,37.6 L12.1,39.3 L11.5,39.3 L10.5,37.7 L9.9,37.7 L9.9,39.3 L9.3,39.3 L9.3,35.5 L9.2,35.5 Z M10.5,40.2 C12,40.2 13.2,39 13.2,37.4 C13.2,35.8 12,34.6 10.5,34.6 C9,34.6 7.8,35.8 7.8,37.4 C7.8,39 8.9,40.2 10.5,40.2 Z M10.5,34.1 C12.3,34.1 13.8,35.5 13.8,37.4 C13.8,39.3 12.3,40.7 10.5,40.7 C8.7,40.7 7.2,39.3 7.2,37.4 C7.2,35.5 8.7,34.1 10.5,34.1 Z" id="Shape"></path>
                    <path d="M61.6,39.5 L61.6,33.3 C61.6,30.5 59.3,28.2 56.5,28.2 L55.9,28.2 L55.9,40.3 L61.6,40.3 L61.6,39.5 Z" id="Shape"></path>
                    <path d="M84.9,39.5 L84.9,29.2 C84.9,13.6 72.2,0.8 56.5,0.8 L56.2,0.8 L56,0.8 L56,12.6 L56.8,12.6 C66,12.7 73.5,20.2 73.6,29.4 L73.6,37.7 L73.6,40.2 L84.9,40.2 L84.9,39.5 Z" id="Shape"></path>
                    <path d="M71.8,39.9 L71.8,29.7 C71.8,21.5 65.2,14.9 57.1,14.5 L56.9,14.5 C56.8,14.5 56.7,14.5 56.6,14.5 L56.3,14.5 L56,14.5 L56,16.7 L56,26.3 L56.3,26.3 L56.6,26.3 C60.4,26.3 63.5,29.4 63.5,33.2 L63.5,40.2 L71.9,40.2 L71.8,39.9 Z" id="Shape"></path>
                </g>
            </g>
        </g>
    </g>
</svg>