<?xml version="1.0" encoding="UTF-8"?>
<svg width="90px" height="36px" viewBox="0 0 90 36" version="1.1" xmlns="http://www.w3.org/2000/svg" xmlns:xlink="http://www.w3.org/1999/xlink">
    <!-- Generator: Sketch 48.2 (47327) - http://www.bohemiancoding.com/sketch -->
    <title>client_logo_a2a</title>
    <desc>Created with Sketch.</desc>
    <defs></defs>
    <g id="About-Us" stroke="none" stroke-width="1" fill="none" fill-rule="evenodd" transform="translate(-822.000000, -3513.000000)">
        <g id="Our-Clients" transform="translate(0.000000, 3096.000000)" fill="#FFFFFF" fill-rule="nonzero">
            <g id="Client-Logos" transform="translate(217.000000, 273.000000)">
                <g id="client_logo_a2a" transform="translate(605.000000, 144.000000)">
                    <g id="Group">
                        <path d="M10.4,18 L9.9,13.9 L13.1,11.7 L8.9,6.1 C5.7,8.2 2.8,13.6 3.5,16.8 C5.6,17.4 10.4,18 10.4,18 Z" id="Shape"></path>
                        <path d="M3.4,18.4 L10.3,19.6 L13.1,22.4 C13.1,22.4 11,26.3 10.1,27.9 C6.9,26.7 3.4,22.2 3.4,18.4 Z" id="Shape"></path>
                        <path d="M14.4,23.6 L19.7,22.5 L23.2,29 C23.2,29 17.1,31 13.1,29.8 C13.7,25.8 14.4,23.6 14.4,23.6 Z" id="Shape"></path>
                        <polygon id="Shape" points="22.4 21 23.1 20.1 28.9 23.1 27.3 26.2"></polygon>
                        <polygon id="Shape" points="24.5 18.4 24.5 15 29.9 12 30.4 20.7"></polygon>
                        <polygon id="Shape" points="22.4 12 23.5 13.6 32.4 8.7 30.4 6.7"></polygon>
                        <path d="M11.1,4.8 L14.9,10.1 L17.6,9 L20.3,11.1 L25.6,7 C25.6,7 20.8,0.4 11.1,4.8 Z" id="Shape"></path>
                        <path d="M19.1,32.6 L19.6,35.4 C19.6,35.4 25.6,34.4 28.9,32 C28.1,30.6 27.5,29.5 27.5,29.5 L24,32.5 L19.1,32.6 Z" id="Shape"></path>
                        <polygon id="Shape" points="29.4 27.9 31.8 29.6 34.2 25.3 31.8 24.6"></polygon>
                        <path d="M32.4,15.1 C32.7,16.9 32.9,20.7 32.4,22 C33.4,22.4 35,23.1 35,23.1 C35,23.1 36.4,18.9 35,14.7 C33.7,15 32.4,15.1 32.4,15.1 Z" id="Shape"></path>
                        <polygon id="Shape" points="31.8 11.2 32.6 13.3 34.6 12.6 33.9 10"></polygon>
                        <polygon id="Shape" points="22.4 3.3 23.1 2 29.4 4.3 26.9 6.1"></polygon>
                        <polygon id="Shape" points="9.6 1.6 17.8 0.1 20.4 0.6 20 2 18.1 1.6 10.4 3"></polygon>
                        <polygon id="Shape" points="5.4 5 6.2 5.6 2.7 11.6 0.4 11.6"></polygon>
                        <path d="M0.2,15.5 C-0.5,20.5 1,24.2 1.5,24.6 L3,24.5 C3,24.5 1.3,18.5 0.9,15.4 L0.2,15.5 Z" id="Shape"></path>
                        <path d="M3,28.2 L4.5,26.9 C4.5,26.9 7.1,29.6 10.1,30.8 C9.4,32.1 9.2,32.5 9.2,32.5 C9.2,32.5 4.9,30.4 3,28.2 Z" id="Shape"></path>
                        <polygon id="Shape" points="12.1 31.8 12.1 33.7 16.4 35 16.6 32.5"></polygon>
                    </g>
                    <g id="Group" transform="translate(41.000000, 4.000000)">
                        <path d="M17.1,25.6 C17.7,25.6 18,25.5 18.3,25.5 C18.4,25.5 18.5,25.4 18.6,25.4 C18.7,25.4 18.8,25.5 18.8,25.6 C18.9,25.7 18.9,26 18.9,26.1 C18.9,26.2 18.9,26.3 18.7,26.3 C18.2,26.5 17.5,26.6 16.9,26.6 C15,26.6 14.3,25.7 14.3,23.8 C14.3,21.7 15.2,20.9 16.8,20.9 C18.8,20.9 19,22 19,23.7 C19,23.9 19,24 18.9,24 C18.8,24 18.8,24.1 18.7,24.1 L15.6,24.1 C15.6,25.3 16.2,25.6 17.1,25.6 Z M17.9,23.2 C17.9,23.1 17.9,23 17.9,23 C17.9,22.3 17.7,21.9 16.8,21.9 C15.9,21.9 15.6,22.4 15.6,23.3 L17.9,23.3 L17.9,23.2 Z" id="Shape"></path>
                        <path d="M21,26.5 L20.3,26.5 C20.1,26.5 20.1,26.4 20.1,26.2 L20.1,22 C20.1,21.6 20.2,21.4 20.5,21.3 C21.2,21 22.3,20.8 23.1,20.8 C24.1,20.8 24.5,21 24.7,21.5 C24.8,21.8 24.8,22.1 24.8,22.6 L24.8,26.2 C24.8,26.4 24.7,26.5 24.6,26.5 L23.9,26.5 C23.7,26.5 23.7,26.4 23.7,26.2 L23.7,22.9 C23.7,22.7 23.7,22.4 23.6,22.3 C23.5,22.1 23.3,22 22.8,22 C22.2,22 21.8,22.1 21.7,22.2 C21.6,22.2 21.5,22.3 21.5,22.3 C21.5,22.4 21.4,22.5 21.4,22.6 L21.4,26.2 C21.3,26.4 21.2,26.5 21,26.5 Z" id="Shape"></path>
                        <path d="M28.5,25.6 C29.1,25.6 29.4,25.5 29.7,25.5 C29.8,25.5 29.9,25.4 30,25.4 C30.1,25.4 30.2,25.5 30.2,25.6 C30.3,25.7 30.3,26 30.3,26.1 C30.3,26.2 30.3,26.3 30.1,26.3 C29.6,26.5 28.9,26.6 28.3,26.6 C26.4,26.6 25.7,25.7 25.7,23.8 C25.7,21.7 26.6,20.9 28.2,20.9 C30.2,20.9 30.4,22 30.4,23.7 C30.4,23.9 30.4,24 30.3,24 C30.2,24 30.2,24.1 30.1,24.1 L27,24.1 C27.1,25.3 27.6,25.6 28.5,25.6 Z M29.4,23.2 C29.4,23.1 29.4,23 29.4,23 C29.4,22.3 29.2,21.9 28.3,21.9 C27.4,21.9 27.1,22.4 27.1,23.3 L29.4,23.3 L29.4,23.2 Z" id="Shape"></path>
                        <path d="M32.5,26.5 L31.8,26.5 C31.6,26.5 31.6,26.4 31.6,26.2 L31.6,22.1 C31.6,21.7 31.7,21.6 31.9,21.4 C32.2,21.2 33.2,20.9 34,20.9 C34.3,20.9 34.5,20.9 34.6,21 C34.7,21 34.8,21.1 34.8,21.2 C34.8,21.4 34.8,21.7 34.7,21.8 C34.7,21.9 34.6,22 34.5,22 C34.4,22 34.1,22 33.9,22 C33.5,22 33.2,22.1 33,22.2 C32.9,22.2 32.9,22.3 32.8,22.4 C32.8,22.5 32.8,22.6 32.8,22.7 L32.8,26.3 C32.7,26.4 32.7,26.5 32.5,26.5 Z" id="Shape"></path>
                        <path d="M37.5,26.6 C35.9,26.6 35.2,26 35.2,23.9 C35.2,21.6 36,21 37.8,21 C38.5,21 39.2,21.1 39.7,21.2 C39.9,21.3 40,21.4 40,21.7 L40,26 C40,26.5 40,27 39.9,27.4 C39.6,28.5 38.3,28.9 36.3,28.9 C36.1,28.9 36,28.8 36,28.7 C36,28.6 36,28.3 36,28.2 C36,28 36.1,27.9 36.3,27.9 C38,27.8 38.5,27.6 38.7,27.2 C38.8,27 38.9,26.7 38.9,26.4 L38.9,26.2 C38.5,26.5 38.1,26.6 37.5,26.6 Z M38.8,22.3 C38.8,22.1 38.7,22 38.6,22 C38.4,21.9 38,21.9 37.8,21.9 C36.6,21.9 36.4,22.4 36.4,23.8 C36.4,25 36.6,25.5 37.6,25.5 C38,25.5 38.4,25.5 38.6,25.3 C38.7,25.3 38.8,25.2 38.8,25.1 C38.8,25.1 38.8,25 38.8,24.9 L38.8,22.3 Z" id="Shape"></path>
                        <path d="M41.9,20 C41.5,20 41.2,19.8 41.2,19.3 C41.2,18.8 41.5,18.6 41.9,18.6 C42.3,18.6 42.6,18.8 42.6,19.3 C42.6,19.8 42.4,20 41.9,20 Z M42.3,26.5 L41.6,26.5 C41.4,26.5 41.4,26.4 41.4,26.2 L41.4,21.3 C41.4,21.1 41.5,21 41.6,21 L42.3,21 C42.5,21 42.5,21.1 42.5,21.3 L42.5,26.2 C42.5,26.4 42.5,26.5 42.3,26.5 Z" id="Shape"></path>
                        <path d="M48,26 C47.9,26.1 47.8,26.2 47.7,26.2 C47.3,26.4 46.3,26.5 45.6,26.5 C43.9,26.5 43.6,25.7 43.6,24.8 C43.6,24.2 43.8,23.8 44.2,23.5 C44.5,23.3 45.2,23.2 45.9,23.2 C46.2,23.2 46.7,23.2 46.9,23.2 L46.9,22.8 C46.9,22.6 46.9,22.4 46.8,22.2 C46.7,22 46.5,21.8 45.8,21.8 C45.5,21.8 45,21.8 44.7,21.9 C44.6,21.9 44.3,22 44.3,22 C44.2,22 44.1,21.9 44.1,21.8 C44.1,21.6 44,21.4 44,21.3 C44,21.1 44.1,21.1 44.2,21 C44.8,20.8 45.5,20.8 46,20.8 C46.9,20.8 47.4,20.9 47.7,21.2 C48,21.5 48.1,21.9 48.1,22.6 L48.1,25.4 C48.1,25.7 48,25.9 48,26 Z M46,24.1 C45.5,24.1 45.1,24.2 44.9,24.3 C44.7,24.4 44.7,24.6 44.7,24.9 C44.7,25.4 44.9,25.7 45.7,25.7 C46.2,25.7 46.5,25.6 46.7,25.6 C46.8,25.6 46.9,25.5 46.9,25.4 C46.9,25.3 46.9,25.2 46.9,25 L46.9,24.2 C46.7,24.1 46.3,24.1 46,24.1 Z" id="Shape"></path>
                        <path d="M8.6,14.1 C7.5,15.3 6.3,16 4.8,16 C2.2,16 0.4,14.3 0.4,12 C0.4,9.5 2.2,7.3 8.7,7 L8.7,6.6 C8.7,4.4 7.8,3.4 5.6,3.4 C4.2,3.4 2.4,4.1 1.1,4.9 L0.6,2.7 C1.8,1.8 3.9,1.1 5.8,1.1 C9.6,1.1 11.2,2.7 11.2,6.5 L11.2,12.3 C11.2,13.5 11.4,13.7 12.6,13.7 L12.4,15.8 C10.2,16 9.1,15.2 8.8,14 L8.6,14 L8.6,14.1 Z M8.6,8.6 C4.5,9.1 2.9,10 2.9,11.7 C2.9,12.9 3.8,13.9 5.4,13.9 C6.7,13.9 7.8,13.3 8.6,12.4 L8.6,8.6 Z" id="Shape"></path>
                        <path d="M14.4,15.5 L14.4,13.3 C18.7,10.1 22.5,7.8 22.5,5.4 C22.5,4 21.4,3 19.6,3 C18.1,3 16.7,3.7 15.3,4.7 L14.4,2.6 C15.8,1.5 17.6,0.7 19.9,0.7 C23,0.7 25.2,2.5 25.2,5.1 C25.2,8.4 22.2,10.2 18.2,13.1 L25.8,13.1 L25.8,15.5 L14.4,15.5 Z" id="Shape"></path>
                        <path d="M36.2,14.1 C35.1,15.3 33.9,16 32.4,16 C29.8,16 28,14.3 28,12 C28,9.5 29.8,7.3 36.3,7 L36.3,6.6 C36.3,4.4 35.4,3.4 33.2,3.4 C31.8,3.4 30,4.1 28.7,4.9 L28.2,2.7 C29.4,1.8 31.5,1.1 33.4,1.1 C37.2,1.1 38.8,2.7 38.8,6.5 L38.8,12.3 C38.8,13.5 39,13.7 40.2,13.7 L40,15.8 C37.8,16 36.7,15.2 36.4,14 L36.2,14 L36.2,14.1 Z M36.2,8.6 C32.1,9.1 30.5,10 30.5,11.7 C30.5,12.9 31.4,13.9 33,13.9 C34.3,13.9 35.4,13.3 36.2,12.4 L36.2,8.6 Z" id="Shape"></path>
                    </g>
                </g>
            </g>
        </g>
    </g>
</svg>