<?xml version="1.0" encoding="UTF-8"?>
<svg width="151px" height="28px" viewBox="0 0 151 28" version="1.1" xmlns="http://www.w3.org/2000/svg" xmlns:xlink="http://www.w3.org/1999/xlink">
    <!-- Generator: Sketch 48.2 (47327) - http://www.bohemiancoding.com/sketch -->
    <title>client_logo_timberland</title>
    <desc>Created with Sketch.</desc>
    <defs></defs>
    <g id="About-Us" stroke="none" stroke-width="1" fill="none" fill-rule="evenodd" transform="translate(-217.000000, -3383.000000)">
        <g id="Our-Clients" transform="translate(0.000000, 3096.000000)" fill="#FFFFFF">
            <g id="Client-Logos" transform="translate(217.000000, 273.000000)">
                <g id="client_logo_timberland" transform="translate(0.000000, 14.000000)">
                    <path d="M142.7,22.3 C140.6,22.3 134.7,21.8 131.5,21.7 C129,21.7 127,21.9 126.2,22 C126.5,22.3 126.7,22.7 127,23 C128,23 130.9,23.1 136.4,24.1 C140.9,24.9 143.4,25 144.6,25 C145.8,24.1 146.9,23.1 147.8,21.8 C146.6,22 144.3,22.3 142.7,22.3 Z" id="Shape"></path>
                    <path d="M136.3,24.4 C131.5,23.5 128.6,23.3 127.3,23.3 C129.7,25.8 133.1,27.4 136.9,27.4 C139.5,27.4 141.9,26.7 144,25.4 C142.7,25.3 140.3,25.1 136.3,24.4 Z" id="Shape"></path>
                    <path d="M19.7,24.5 C19.1,24.1 19,23.7 19,23.3 C19,23.3 19,11.9 19,10.8 C19,9.7 18.5,9.3 18.2,9.3 C17.5,9.3 14.1,10.8 13.3,11.2 C12.5,11.6 13.1,12.2 13.5,12.4 C13.9,12.6 14.2,12.8 14.2,13.7 C14.2,14.7 14.2,22.9 14.2,23.3 C14.2,23.7 14.1,24.2 13.5,24.5 C13.4,24.6 13.3,24.7 13.3,24.8 C13.2,24.7 13.1,24.5 12.9,24.4 C12,23.7 12.1,23.4 12.1,22.6 C12.1,21.8 12.1,6.2 12.1,5.3 C12.1,4.4 12,3.7 12.5,3.7 C13.7,3.7 14.4,6 15.1,7.6 C15.8,9.2 18,8.3 17.7,7.2 C17.5,6.1 17,3 16.7,1.9 C16.5,0.8 16,0.1 15.6,0.1 C15.2,0.1 14.4,0.8 14.4,0.8 L9.3,0.9 L4,0.8 C4,0.8 3.3,0.1 2.8,0.1 C2.4,0.1 1.9,0.8 1.7,1.9 C1.5,3 1,6.1 0.7,7.2 C0.5,8.3 2.6,9.1 3.3,7.6 C4,6 4.6,3.7 5.9,3.7 C6.4,3.7 6.3,4.4 6.3,5.3 C6.3,6.2 6.3,21.8 6.3,22.6 C6.3,23.4 6.4,23.7 5.5,24.4 C4.6,25.1 5.4,25.8 6.8,25.8 L11.3,25.8 C12.2,25.8 12.8,25.5 13,25.2 C13.1,25.5 13.4,25.8 13.8,25.8 L18.9,25.8 C19.7,25.7 20.3,24.8 19.7,24.5 Z" id="Shape"></path>
                    <path d="M79.4,24.5 C78.8,24.1 78.7,23.7 78.7,23.3 C78.7,23.3 78.7,3.7 78.7,2.6 C78.7,1.5 78.2,1.1 77.9,1.1 C77.2,1.1 73.8,2.6 73,3 C72.2,3.4 72.8,4 73.2,4.2 C73.6,4.4 73.9,4.6 73.9,5.5 C73.9,5.8 73.9,7.7 73.9,10.1 C73.6,9.7 73,9.4 72.2,9.4 C69.3,9.4 69.8,11.5 68.2,11.9 C68.2,11.3 68.2,10.9 68.2,10.7 C68.2,9.6 67.7,9.2 67.4,9.2 C66.7,9.2 63.3,10.7 62.5,11.1 C61.7,11.5 62.3,12.1 62.7,12.3 C63.1,12.5 63.4,12.7 63.4,13.6 C63.4,14.6 63.4,22.8 63.4,23.2 C63.4,23.6 63.3,24.1 62.7,24.4 C62.1,24.8 62.6,25.7 63.3,25.7 L68.4,25.7 C69.1,25.7 69.6,24.8 69,24.4 C68.4,24 68.3,23.6 68.3,23.2 C68.3,23.2 68.3,20.1 68.3,17 C68.7,15.8 69.6,13.3 71,13.3 C71.6,13.3 71.4,14.9 72.8,14.9 C73.1,14.9 73.6,14.2 74,13.3 C74,18 74,23 74,23.2 C74,23.6 73.9,24.1 73.3,24.4 C72.7,24.8 73.2,25.7 73.9,25.7 L79,25.7 C79.5,25.7 80,24.8 79.4,24.5 Z" id="Shape"></path>
                    <path d="M149.8,10.6 L142.6,12.4 L143.4,10.9 C145.1,10.6 147.2,10.1 149.3,9 C149.1,8.6 149,8.2 148.8,7.9 C147.1,8.8 145.5,9.2 144.3,9.3 L145.4,7.2 L148.3,7 C148,6.6 147.8,6.2 147.5,5.8 L144.2,5.8 L145.5,3.7 C145.2,3.5 144.9,3.3 144.7,3.1 L142,6.8 L141.2,5.3 L141.3,4.8 L143.8,2.6 C143.5,2.4 143.2,2.3 142.9,2.1 L140.2,3.5 L138.8,0.8 C138.4,0.7 138,0.7 137.6,0.7 L139.1,4.5 L138.7,4.9 L136.5,0.7 C136.4,0.7 136.2,0.7 136.1,0.7 L134.4,4.2 L132.7,1.3 C132.1,1.5 131.6,1.7 131.1,2 L131,4.3 L128.5,3.6 C128,4 127.5,4.5 127.1,4.9 L130.1,8.6 L129.3,8.7 L126.6,5.6 C126.3,6 126,6.4 125.7,6.8 L127.4,8.8 L124.6,9 C124,10.6 123.6,12.2 123.6,14 C123.6,16.9 124.5,19.6 126.1,21.8 C126.7,21.7 128.9,21.4 131.5,21.4 C134.7,21.4 140.5,21.9 142.7,21.9 C144.5,21.9 147.1,21.5 148.2,21.3 C149.5,19.2 150.3,16.7 150.3,14.1 C150.3,12.9 150.1,11.7 149.8,10.6 Z M143.2,7.4 L143.9,7.3 L142.6,9.4 C142.3,9.4 142.1,9.4 141.9,9.4 L143.2,7.4 Z M141.6,11.2 L140.5,13 L139.5,13.3 L140.8,11.3 C141,11.2 141.3,11.2 141.6,11.2 Z M140.3,7.6 L140.7,8.6 L138.5,11.6 L138.4,8.9 L140.3,7.6 Z M134.3,8.4 L134.6,10.8 L133.6,9.9 L134.3,8.4 Z M133,4.9 L132.4,4.8 L132.3,3.8 L133,4.9 Z M133.6,6.5 L132.6,8.3 L132.5,6.2 L133.6,6.5 Z M128.9,5 L130.9,5.6 L131,7 L128.9,5 Z M129.5,9.9 L131.4,9.8 L132.1,10.4 L130.2,11.9 L128.4,11.2 L129.5,9.9 Z M127.4,10 L126.9,10.7 L125.3,10.1 L127.4,10 Z M125.4,11.4 L126.1,11.7 L125.2,13 C125.2,12.4 125.3,11.9 125.4,11.4 Z M135.8,19.5 C132.5,19 129.2,18.6 126,18.5 C125.5,17.1 125.2,15.7 125.2,14.1 C125.2,14.1 125.2,14 125.2,14 L125.8,14 L126.2,14 L127.5,12.4 L129,13.1 L128.3,14.1 L130,14.2 L133.3,11.5 L134.1,12.4 L130.8,14.2 L133.5,14.3 L135.2,13.6 L135.8,14.3 L135.8,19.5 Z M136.4,10.9 L136.2,10 L137,9.6 L137,10.9 L136.4,10.9 Z M137.1,7.8 L136,8.6 L135.4,6.1 L136.6,3.4 L137.6,5.5 L137.1,7.8 Z M147.2,20.8 C144.4,20.7 141.5,20.4 138.6,20 C138,17.5 138.3,14.9 138.3,14.9 L142.7,13.8 L143.3,14.7 L144.5,14.6 L144.2,13.4 L145.9,13 C146.2,13.4 147,14.4 147.8,14.9 L148.7,14.5 C148.7,14.5 147.9,13.5 147.6,12.6 L149.1,12.2 C149.2,12.8 149.3,13.5 149.3,14.1 C149.2,16.6 148.4,18.9 147.2,20.8 Z" id="Shape"></path>
                    <path d="M47.1,9 C45.8,9 46,9.6 45,9.9 C45,5.9 45,2.5 45,2.1 C45,1 44.5,0.6 44.2,0.6 C43.5,0.6 40.4,2.1 39.6,2.5 C38.8,2.9 39.4,3.8 39.8,4 C40.2,4.2 40.2,4.4 40.2,5.3 C40.2,6.1 40.2,21.5 40.2,23.5 C40.2,24 40.2,24.4 40.3,24.7 C40.3,24.6 40.2,24.5 40.1,24.5 C39.5,24.1 39.4,23.7 39.4,23.3 C39.4,22.4 39.7,9.5 34.9,9.5 C33.2,9.5 33.1,10.8 32,11.1 C31.5,10.1 30.7,9.3 29.3,9.3 C26.9,9.3 27.2,10.7 26,11 C26,10.9 26,10.8 26,10.8 C26,9.7 25.5,9.3 25.2,9.3 C24.5,9.3 21.1,10.8 20.3,11.2 C19.5,11.6 20.1,12.2 20.5,12.4 C20.9,12.6 21.2,12.8 21.2,13.7 C21.2,14.7 21.2,22.9 21.2,23.3 C21.2,23.7 21.1,24.2 20.5,24.5 C19.9,24.9 20.4,25.8 21.1,25.8 L26,25.8 C26.7,25.8 27.2,24.9 26.6,24.5 C26,24.1 25.9,23.7 25.9,23.3 C25.9,23.3 25.9,17.9 25.9,14.2 C25.9,13.3 26.6,12.6 27.1,12.6 C27.6,12.6 28.1,13 28.1,14.1 C28.1,15.1 28.1,22.9 28.1,23.3 C28.1,23.7 28,24.2 27.4,24.5 C26.8,24.9 27.3,25.8 28,25.8 L32.6,25.8 C33.3,25.8 33.8,24.9 33.2,24.5 C32.6,24.1 32.5,23.7 32.5,23.3 C32.5,23.3 32.5,13.6 32.5,13.5 C32.5,13.2 33,12.9 33.4,12.9 C34.7,12.9 35.1,22 35.1,23.3 C35.1,23.7 35,24.2 34.4,24.5 C33.8,24.9 34.3,25.8 35,25.8 L39.6,25.8 C40.1,25.8 40.5,25.4 40.5,25 C40.7,25.9 41.1,25.8 41.4,25.8 C41.8,25.8 42.1,26 43.1,24.4 C43.3,24.1 43.7,24.3 44.3,24.9 C44.8,25.5 45.2,26.2 47.5,26.2 C49.8,26.2 52.3,25.8 52.3,17.5 C52.1,10.9 48.5,9 47.1,9 Z M46.4,22 C45.2,22 45,18.3 45,17 C45,15.7 45.4,11.5 46.5,11.5 C47.6,11.5 48.1,15.1 48.1,17 C48.1,18.9 47.6,22 46.4,22 Z" id="Shape"></path>
                    <path d="M60.6,20.9 C60.6,22.2 60,22.1 59.4,22.1 C58.9,22.1 57.6,22.2 56.6,19.8 C56.6,19.5 56.6,18.8 57.5,18.6 C57.5,18.6 61.7,17 62.2,16.7 C62.7,16.5 62.7,15.6 62.7,14.9 C62.7,14.2 61.7,9.1 57.7,9.1 C53.7,9.1 52.2,13.4 52.2,18 C52.2,22.6 54.4,26.1 58.3,26.1 C62.3,26.1 62.9,23.6 62.9,22 C62.9,20.3 60.6,19.9 60.6,20.9 Z M55.8,16.6 C55.2,11.9 56.2,11.4 56.8,11.4 C57.3,11.4 58.6,13.1 58.6,14.7 C58.6,16.3 57.2,16.8 56.5,16.8 C56.2,16.9 55.8,16.8 55.8,16.6 Z" id="Shape"></path>
                    <path d="M105.3,24.5 C104.7,24.1 104.6,23.7 104.6,23.3 C104.6,22.4 104.9,9.5 100.1,9.5 C98.6,9.5 98.3,10.5 97.6,10.9 C97.6,10.8 97.6,10.8 97.6,10.7 C97.6,9.6 97.1,9.2 96.8,9.2 C96.1,9.2 92.7,10.7 91.9,11.1 C91.1,11.5 91.7,12.1 92.1,12.3 C92.5,12.5 92.8,12.7 92.8,13.6 C92.8,14.6 92.8,22.8 92.8,23.2 C92.8,23.6 92.7,24 92.1,24.4 C92,23.9 91.6,23.3 91.1,23.3 C90.6,23.3 90.5,22.9 90.5,22.3 C90.5,21.8 90.5,21.5 90,15.5 C89.5,9.5 87,9.7 84.3,9.7 C81.6,9.7 79.3,11 79.3,13 C79.3,15.1 80.6,15.2 81.7,15.2 C82.7,15.2 83.5,15 83.5,13.6 C83.5,12.3 82.6,11.8 82.6,11.8 C82.6,11.8 83,11.7 84,11.7 C85,11.7 85.5,13.2 85.5,14.6 C85.5,15.7 83.6,15.8 82.8,16.1 C80.3,17.4 79,19.4 79,21.9 C79,24.4 80.5,25.7 80.9,25.7 C81.4,25.7 84.2,25.7 85.2,25.7 C86.2,25.7 86.6,25.2 86.9,25.2 C87.2,25.2 87.4,25.7 87.8,25.7 C88.2,25.7 88.7,25.7 90.5,25.7 C91.3,25.7 91.7,25.6 91.9,25.4 C92.1,25.6 92.3,25.7 92.6,25.7 L97.7,25.7 C98.4,25.7 98.9,24.8 98.3,24.4 C97.7,24 97.6,23.6 97.6,23.2 C97.6,23.2 97.6,17.5 97.6,13.7 C97.6,13.3 98.1,12.8 98.6,12.8 C99.9,12.8 100.3,21.9 100.3,23.2 C100.3,23.6 100.2,24.1 99.6,24.4 C99,24.8 99.5,25.7 100.2,25.7 L104.8,25.7 C105.4,25.7 106,24.8 105.3,24.5 Z M85.8,22.4 C85.8,22.9 85.7,23.6 84.9,23.6 C84.2,23.6 83.4,23.4 83.4,20.9 C83.4,18.5 84.4,17.5 85.7,17.5 C85.8,17.5 85.8,21.9 85.8,22.4 Z" id="Shape"></path>
                    <path d="M117.6,24.5 C117,24.1 116.9,23.7 116.9,23.3 C116.9,23.3 116.9,4.2 116.9,3.1 C116.9,2 116.4,1.6 116.1,1.6 C115.6,1.6 113.9,2.6 112.6,3.2 C112,3.5 111.4,3.4 111.1,3.5 C110.3,3.9 110.9,4.5 111.3,4.7 C111.7,4.9 112,5.1 112,6 C112,6.3 112,8.3 112,10.8 C111.7,10.5 110.9,9.9 109.7,9.9 C108.1,9.9 104.9,12.9 104.9,19.1 C104.9,21.7 105.7,23.6 106.2,24.8 C106.7,26 107.2,25.8 108,25.8 C108.6,25.8 117,25.8 117,25.8 C117.7,25.7 118.2,24.8 117.6,24.5 Z M110.9,23.1 C110.4,23.1 109.1,21.7 109.1,18.2 C109.1,14.7 110,12.7 110.4,12.7 C111.1,12.7 112.2,14.6 112.2,18.1 C112.3,21.6 111.4,23.1 110.9,23.1 Z" id="Shape"></path>
                    <path d="M106.9,2.8 C106.2,2.8 105.6,3.3 105.6,4 C105.6,4.7 106.2,5.2 106.9,5.2 C107.6,5.2 108.2,4.7 108.2,4 C108.1,3.4 107.5,2.8 106.9,2.8 Z M106.9,5.1 C106.3,5.1 105.9,4.7 105.9,4.1 C105.9,3.5 106.3,3.1 106.9,3.1 C107.5,3.1 107.9,3.5 107.9,4.1 C107.9,4.7 107.4,5.1 106.9,5.1 Z" id="Shape"></path>
                    <path d="M107.1,4.2 C107.3,4.2 107.5,4.1 107.5,3.8 C107.5,3.5 107.3,3.4 107,3.4 L106.5,3.4 L106.5,4.8 L106.7,4.8 L106.7,4.2 L106.9,4.2 L107.3,4.8 L107.5,4.8 L107.1,4.2 Z M106.6,4 L106.6,3.6 L106.9,3.6 C107.1,3.6 107.2,3.6 107.2,3.8 C107.2,4 107,4 106.9,4 L106.6,4 Z" id="Shape"></path>
                </g>
            </g>
        </g>
    </g>
</svg>