<?xml version="1.0" encoding="UTF-8"?>
<svg width="85px" height="35px" viewBox="0 0 85 35" version="1.1" xmlns="http://www.w3.org/2000/svg" xmlns:xlink="http://www.w3.org/1999/xlink">
    <!-- Generator: Sketch 48.2 (47327) - http://www.bohemiancoding.com/sketch -->
    <title>client_logo_vans</title>
    <desc>Created with Sketch.</desc>
    <defs></defs>
    <g id="About-Us" stroke="none" stroke-width="1" fill="none" fill-rule="evenodd" transform="translate(-250.000000, -3514.000000)">
        <g id="Our-Clients" transform="translate(0.000000, 3096.000000)" fill="#FFFFFF" fill-rule="nonzero">
            <g id="Client-Logos" transform="translate(217.000000, 273.000000)">
                <g id="client_logo_vans" transform="translate(33.000000, 145.000000)">
                    <path d="M4.3,30.6 L3,30.6 L2.8,27.9 L4,27.9 L4.3,30.6 Z M80.8,30.6 L82.1,30.6 L82.3,27.9 L81,27.9 L80.8,30.6 Z M2,27.9 L0.7,27.9 L0.9,30.6 L2.2,30.6 L2,27.9 Z M82.8,30.6 L84.1,30.6 L84.3,27.9 L83,27.9 L82.8,30.6 Z M10.7,31.3 C10.7,32.2 10,33 9.1,33.1 C9.1,33.1 9,33.1 9,33.1 C8,33.1 7.3,32.3 7.3,31.4 C7.3,31.4 7.3,31.4 7.3,31.4 C7.3,30.4 8,29.6 9,29.6 C9.9,29.5 10.7,30.3 10.7,31.3 C10.7,31.3 10.7,31.3 10.7,31.3 Z M5.3,31.3 C5.3,33.2 6.8,34.7 8.9,34.7 C11,34.7 12.5,33.2 12.5,31.2 C12.5,29.3 11,27.8 8.9,27.8 C6.9,27.8 5.3,29.4 5.3,31.3 Z M13.8,34.6 L15.7,34.6 L15.7,32.2 L18.9,32.2 L18.9,30.7 L15.7,30.7 L15.7,29.6 L19.2,29.6 L19.2,28 L13.8,28 L13.8,34.6 Z M20.2,34.6 L22.1,34.6 L22.1,32.2 L25.3,32.2 L25.3,30.7 L22.1,30.7 L22.1,29.6 L25.6,29.6 L25.6,28 L20.2,28 L20.2,34.6 Z M30.9,34.6 L32.8,34.6 L32.8,29.6 L34.8,29.6 L34.8,28 L28.9,28 L28.9,29.6 L30.9,29.6 L30.9,34.6 Z M36.1,34.6 L38,34.6 L38,32.1 L40.4,32.1 L40.4,34.6 L42.3,34.6 L42.3,28 L40.4,28 L40.4,30.5 L38,30.5 L38,28 L36.1,28 L36.1,34.6 Z M43.5,34.6 L49,34.6 L49,33 L45.4,33 L45.4,32 L48.6,32 L48.6,30.5 L45.4,30.5 L45.4,29.5 L49,29.5 L49,28 L43.6,28 L43.5,34.6 Z M54.1,34.7 L55.7,34.7 L57.1,30.9 L58.5,34.7 L60.1,34.7 L62.4,28 L60.5,28 L59.3,31.8 L58,27.9 L56.4,27.9 L55.1,31.8 L53.9,28 L51.9,28 L54.1,34.7 Z M64.5,32 L65.3,30.1 L66,32 L64.5,32 Z M61.5,34.6 L63.5,34.6 L64,33.4 L66.6,33.4 L67.1,34.6 L69.1,34.6 L66.2,27.9 L64.4,27.9 L61.5,34.6 Z M70,34.6 L75.1,34.6 L75.1,33 L71.8,33 L71.8,28 L70,28 L70,34.6 Z M76.1,34.6 L81.2,34.6 L81.2,33 L78,33 L78,28 L76.1,28 L76.1,34.6 Z" id="Shape"></path>
                    <path d="M73.2,11.3 L69.6,11.3 C69.2,10.4 68.9,9.7 66.8,9.7 C65.4,9.7 64.8,10.3 64.8,10.9 C64.8,11.5 65.3,12.1 66.9,12.4 L70.2,13.3 C72.4,13.9 73.4,15.6 73.4,17.4 C73.4,18.4 73.2,19.6 72.2,20.6 C71.5,21.3 70.4,22.3 66.8,22.3 C61.9,22.3 60.3,19.2 60.3,17.3 L64.1,17.3 C64.5,18.7 65.4,19.2 67.3,19.2 C68.6,19.2 69.7,18.7 69.7,17.8 C69.7,16.9 68.9,16.5 67.9,16.2 L65.3,15.5 C64,15.1 63,14.8 62.3,14.2 C60.4,12.6 60.5,9.6 62.6,8.1 C63.8,7.2 65,6.8 66.9,6.8 C69.1,6.8 70.4,7.4 71.4,8.1 C72.1,8.6 73.2,10.1 73.2,11.3 Z M11.8,0.8 C11.8,0.9 19.4,22.1 19.4,22.1 L24,22.1 L31,4.5 L74.2,4.5 L74.5,0.8 L27.6,0.8 L21.8,15.4 L16.6,0.8 L11.8,0.8 Z M49.2,14.4 L54.8,22 L58.3,22 L58.3,7 L54.2,7 L54.2,15.2 L49.1,7 L45.2,7 L45.2,22.1 L49.1,22.1 L49.1,14.4 L49.2,14.4 Z M74.6,21.3 C74.6,20.9 74.2,20.5 73.8,20.5 C73.4,20.5 73,20.9 73,21.3 C73,21.7 73.4,22.1 73.8,22.1 C74.3,22.1 74.6,21.7 74.6,21.3 C74.6,21.3 74.6,21.3 74.6,21.3 Z M74.5,21.3 C74.5,21.7 74.2,22 73.8,22 C73.4,22 73.1,21.7 73.1,21.3 C73.1,20.9 73.4,20.6 73.8,20.6 C74.2,20.6 74.5,20.9 74.5,21.3 C74.5,21.3 74.5,21.3 74.5,21.3 Z M74.2,21.1 C74.2,20.9 74.1,20.8 73.9,20.8 C73.9,20.8 73.9,20.8 73.9,20.8 L73.5,20.8 L73.5,21.7 L73.7,21.7 L73.7,21.4 L73.8,21.4 L74,21.7 L74.2,21.7 L74,21.4 C74.1,21.3 74.2,21.2 74.2,21.1 Z M74,21.1 C74,21.2 73.9,21.2 73.9,21.2 C73.9,21.2 73.9,21.2 73.9,21.2 L73.7,21.2 L73.7,21 L73.9,21 C73.9,21 74,21 74,21.1 C74,21.1 74,21.1 74,21.1 Z M27.7,22.1 L32,22.1 L32.8,19.7 L38.5,19.7 L39.3,22.1 L43.6,22.1 L38.2,7 L33.6,7 L27.7,22.1 Z M34.1,17 L35.8,12 L37.5,17 L34.1,17 Z" id="Shape"></path>
                </g>
            </g>
        </g>
    </g>
</svg>