<?xml version="1.0" encoding="UTF-8"?>
<svg width="51px" height="51px" viewBox="0 0 51 51" version="1.1" xmlns="http://www.w3.org/2000/svg" xmlns:xlink="http://www.w3.org/1999/xlink">
    <!-- Generator: Sketch 48.2 (47327) - http://www.bohemiancoding.com/sketch -->
    <title>client_logo_vw</title>
    <desc>Created with Sketch.</desc>
    <defs></defs>
    <g id="About-Us" stroke="none" stroke-width="1" fill="none" fill-rule="evenodd" transform="translate(-547.000000, -3508.000000)">
        <g id="Our-Clients" transform="translate(0.000000, 3096.000000)" fill="#FFFFFF">
            <g id="Client-Logos" transform="translate(217.000000, 273.000000)">
                <g id="client_logo_vw" transform="translate(330.000000, 139.000000)">
                    <path d="M50.5,25.8 C50.5,12 39.3,0.9 25.6,0.9 C11.8,0.9 0.7,12.1 0.7,25.8 C0.7,31.4 2.6,36.6 5.7,40.7 C10.2,46.8 17.5,50.7 25.6,50.7 C33.8,50.7 41,46.8 45.5,40.7 C48.6,36.5 50.5,31.4 50.5,25.8 Z M25.5,5.1 C27.6,5.1 29.6,5.4 31.6,6 L25.5,19.6 L19.5,6 C21.4,5.4 23.4,5.1 25.5,5.1 Z M11.3,40.7 C7.4,36.9 4.9,31.6 4.9,25.8 C4.9,23.6 5.2,21.5 5.9,19.5 L15.4,40.7 L17.1,44.6 C14.9,43.6 13,42.3 11.3,40.7 Z M8.8,13.7 C10.4,11.4 12.5,9.5 15,8 L22.6,25 L28.7,25 L36.3,8 C38.7,9.5 40.8,11.4 42.5,13.7 L32.8,35.5 L28.8,26.5 L22.7,26.5 L18.7,35.5 L8.8,13.7 Z M35.7,40.7 L45.2,19.5 C45.8,21.5 46.2,23.6 46.2,25.8 C46.2,31.7 43.7,37 39.8,40.7 C38.1,42.3 36.2,43.6 34.1,44.6 L35.7,40.7 Z M29.5,40.7 L31.6,45.5 C29.7,46.1 27.6,46.4 25.5,46.4 C23.4,46.4 21.4,46.1 19.4,45.5 L21.5,40.7 L25.4,31.9 C25.5,31.9 29.5,40.7 29.5,40.7 Z" id="Shape"></path>
                </g>
            </g>
        </g>
    </g>
</svg>