<?xml version="1.0" encoding="UTF-8"?>
<svg width="159px" height="23px" viewBox="0 0 159 23" version="1.1" xmlns="http://www.w3.org/2000/svg" xmlns:xlink="http://www.w3.org/1999/xlink">
    <!-- Generator: Sketch 48.2 (47327) - http://www.bohemiancoding.com/sketch -->
    <title>client_logo_mediaworld</title>
    <desc>Created with Sketch.</desc>
    <defs></defs>
    <g id="About-Us" stroke="none" stroke-width="1" fill="none" fill-rule="evenodd" transform="translate(-1068.000000, -3386.000000)">
        <g id="Our-Clients" transform="translate(0.000000, 3096.000000)" fill="#FFFFFF" fill-rule="nonzero">
            <g id="Client-Logos" transform="translate(217.000000, 273.000000)">
                <g id="client_logo_mediaworld" transform="translate(851.000000, 17.000000)">
                    <polygon id="Shape" points="123.6 1.1 121.1 1.1 120.7 1.1 120.5 1.3 111.2 13.7 113.2 1.9 113.4 1.1 112.5 1.1 110.8 1.1 110.4 1.1 110.2 1.3 100.9 13.8 103 1.9 103.1 1.1 102.3 1.1 100.2 1.1 99.6 1.1 99.5 1.6 96.1 21.4 96 22.2 96.8 22.2 98.9 22.2 99.2 22.2 99.4 21.9 108.2 9.9 106.4 21.4 106.3 22.2 107.1 22.2 108.9 22.2 109.3 22.2 109.5 21.9 124.2 2.2 125 1.1"></polygon>
                    <path d="M138.6,7 C137.6,7 136.9,7.2 136.3,7.4 L136.3,7.2 L135.5,7.2 L133.3,7.2 L132.7,7.2 L132.6,7.8 L130.2,21.3 L130.1,22.1 L130.9,22.1 L133.1,22.1 L133.7,22.1 L133.8,21.5 L135.3,12.6 C135.9,10.5 138,10.5 138.1,10.5 L138.7,10.5 C138.7,10.5 138.8,9.9 138.8,9.9 L139.2,7.6 L139.3,6.8 L138.6,7 Z" id="Shape"></path>
                    <polygon id="Shape" points="143.5 2.7 141.3 2.7 140.7 2.7 140.6 3.3 137.4 21.3 137.3 22.1 138.1 22.1 140.3 22.1 140.9 22.1 141 21.6 144.2 3.5 144.3 2.7"></polygon>
                    <path d="M129.8,8.8 C128,6.7 125.1,6.8 124.9,6.8 C118.1,7.3 117.3,14.4 117.3,14.4 C117,16.3 117.2,19 118.8,20.7 C119.8,21.9 121.3,22.4 123.1,22.4 C129.6,22.1 130.8,15.7 130.8,15.6 C131.4,12.7 131.1,10.4 129.8,8.8 Z M127.6,14.4 C126.6,18.7 123.7,18.7 123.5,18.7 C122.5,18.7 121.7,18.4 121.3,17.9 C120.4,16.9 120.6,15.2 120.6,15 C120.6,15 120.6,15 120.6,15 L120.6,14.9 C120.6,14.9 120.6,14.9 120.6,14.9 C120.6,14.9 120.6,14.9 120.6,14.9 C121.6,10.4 124.7,10.6 124.8,10.6 C125.9,10.7 126.6,11.1 127.1,11.7 C127.9,12.8 127.6,14.4 127.6,14.4 Z" id="Shape"></path>
                    <path d="M157.6,3 L155.4,3 L154.8,3 L154.7,3.6 L154,7.9 C152.4,6.7 150.5,6.8 150.5,6.8 C144,6.8 142.9,14.3 142.9,14.4 C142.5,16.8 143,19.1 144.3,20.6 C145.3,21.8 146.8,22.5 148.6,22.5 C149.7,22.5 150.7,22.3 151.6,21.8 L151.5,22.2 L152.3,22.2 L154.5,22.2 L155.1,22.2 L155.2,21.6 L158.3,3.8 L158.4,3 L157.6,3 Z M153.1,14.4 C153,15 152.8,15.5 152.5,16 C151.3,18.7 149.1,18.6 149,18.6 C148,18.6 147.3,18.3 146.8,17.8 C145.9,16.8 146.1,15.1 146.1,14.9 C147.1,10.4 150.2,10.6 150.3,10.6 C151.9,10.8 152.8,11.5 153.1,12.9 C153.3,13.7 153.1,14.4 153.1,14.4 Z" id="Shape"></path>
                    <polygon id="Shape" points="28.6 1.1 26.6 1.1 26.3 1.1 26.1 1.3 17.4 13 19.3 1.9 19.4 1.1 18.6 1.1 16.6 1.1 16.2 1.1 16 1.3 1.5 21.1 0.7 22.2 2 22.2 4.6 22.2 5 22.2 5.2 21.9 14.5 9.5 12.5 21.4 12.4 22.2 13.2 22.2 14.7 22.2 15.1 22.2 15.3 21.9 24.6 9.5 22.6 21.4 22.4 22.2 23.2 22.2 25.3 22.2 25.9 22.2 26 21.6 29.3 1.9 29.4 1.1"></polygon>
                    <path d="M74.1,7.3 L71.9,7.3 L71.3,7.3 L71.2,7.9 C69.6,6.7 67.7,6.8 67.7,6.8 C61.2,6.8 60.1,14.3 60.1,14.4 C59.7,16.8 60.2,19.1 61.5,20.6 C62.5,21.8 64,22.5 65.8,22.5 C66.9,22.5 67.9,22.3 68.8,21.8 L68.7,22.2 L69.5,22.2 L71.7,22.2 L72.3,22.2 L72.4,21.6 L73.4,15.7 L73.5,15.4 L74.8,8.1 L74.9,7.3 L74.1,7.3 Z M70.4,14.4 C70.3,15 70.1,15.5 69.8,16 C68.6,18.7 66.4,18.6 66.3,18.6 C65.3,18.6 64.6,18.3 64.1,17.8 C63.2,16.7 63.4,14.9 63.5,14.9 C64.5,10.4 67.6,10.6 67.7,10.6 C69.3,10.8 70.2,11.5 70.5,12.9 C70.6,13.7 70.4,14.4 70.4,14.4 Z" id="Shape"></path>
                    <path d="M56.6,3 L54.4,3 L53.8,3 L53.7,3.6 L53,7.9 C51.4,6.7 49.5,6.8 49.5,6.8 C43,6.8 41.9,14.3 41.9,14.4 C41.5,16.8 42,19.1 43.3,20.6 C44.3,21.8 45.8,22.5 47.6,22.5 C48.7,22.5 49.7,22.3 50.6,21.8 L50.5,22.2 L51.3,22.2 L53.5,22.2 L54.1,22.2 L54.2,21.6 L57.3,3.8 L57.4,3 L56.6,3 Z M52.1,14.4 C52,15 51.8,15.5 51.6,16 C50.4,18.7 48.2,18.6 48.1,18.6 C47.1,18.6 46.3,18.3 45.9,17.8 C45,16.8 45.2,15.1 45.2,14.9 C45.2,14.9 45.2,14.9 45.2,14.9 L45.2,14.8 C45.2,14.8 45.2,14.8 45.2,14.8 C45.2,14.8 45.2,14.8 45.2,14.8 C46.2,10.3 49.3,10.5 49.4,10.5 C51,10.7 51.9,11.4 52.2,12.8 C52.3,13.7 52.1,14.4 52.1,14.4 Z" id="Shape"></path>
                    <polygon id="Shape" points="57.8 7.3 57.2 7.3 57.1 7.8 54.8 21.4 54.6 22.2 55.5 22.2 57.7 22.2 58.2 22.2 58.3 21.6 60.7 8.1 60.8 7.3 60 7.3"></polygon>
                    <polygon id="Shape" points="60.7 3 58.5 3 57.9 3 57.8 3.5 57.5 5 57.3 5.8 58.2 5.8 60.4 5.8 61 5.8 61.1 5.3 61.4 3.8 61.5 3"></polygon>
                    <path d="M39.7,8.5 C38,6.6 35.5,6.8 35.4,6.8 C28.9,6.8 27.8,14.3 27.8,14.4 C27.5,16.2 27.7,18.8 29.2,20.5 C30.2,21.7 31.8,22.4 33.6,22.4 C37.4,22.4 39.5,19.5 40.2,18.2 L40.8,17.2 L39.6,17.2 L37,17.2 L36.7,17.2 L36.5,17.5 C35.6,18.6 33.9,18.7 33.9,18.7 C33,18.7 32.3,18.4 31.9,18 C31.4,17.5 31.3,16.8 31.3,16.3 L40.6,16.3 L41.2,16.3 L41.3,15.7 C41.6,12.5 41.1,10.1 39.7,8.5 Z M32,12.6 C32.4,11.8 33.4,10.6 35.2,10.6 C36.1,10.6 36.8,10.8 37.2,11.3 C37.6,11.7 37.7,12.2 37.8,12.6 L32,12.6 Z" id="Shape"></path>
                    <path d="M83,9.4 C83.2,8.5 83.2,7.5 84.4,6.2 C85.8,4.5 88.1,4.4 89.8,4.3 C91.5,4.2 93.1,4.6 94.5,5.2 C95.1,6 95.6,7 96,8 C94.4,6.6 90.8,4.9 87.7,5.6 C85.7,6.1 84.9,7.2 84.4,8.1 C84.4,8.1 84.5,8 84.5,8 C85.4,6.9 87.1,5.9 89.1,5.9 C91,5.8 92.7,6.8 93.8,7.6 C94.8,8.3 95.8,9.2 96.5,10.1 C96.6,10.6 96.6,11 96.6,11.5 C96.6,12.3 96.5,13 96.4,13.8 C95.8,11.9 94.8,10.3 93.6,9.1 C92.3,7.9 90.9,7.1 89.1,7 C89.1,7 87.5,7 86.2,7.7 C87.1,7.4 88.1,7.2 89.3,7.4 C90,7.5 91.7,8 93.2,9.5 C94.7,11.1 95.5,13.2 95.7,15.9 C95.2,17 94.4,18.1 93.6,18.9 L93.6,18.8 C94.1,16.7 94.2,14.8 93.8,13.3 C93.4,11.9 92.7,10.6 91.6,9.6 C90.5,8.6 89,8.2 88.2,8.3 C88.5,8.4 88.9,8.5 89.2,8.6 C90.1,9 91.6,9.9 92.7,11.9 C94.2,14.8 92.8,18.5 92,20.2 C91,20.9 89.9,21.4 88.7,21.6 L89.1,21.1 C90.6,19.5 92.2,17.2 92,14.4 C92,14.1 91.9,11.8 89.7,10.1 C90.4,11 91.5,12.4 91.5,14.7 C91.5,18.1 88.2,20.9 86.8,21.9 C86.6,21.9 86.4,21.9 86.2,21.9 C85.2,21.9 84.3,21.8 83.4,21.5 L83.9,21.3 C87.5,20 90.1,17.2 90.2,14.3 C90.3,13.3 90,12.6 89.9,12.2 C90,13.1 90,14.9 89.3,16.2 C88.6,17.7 87.4,18.8 85.8,19.6 C84.5,20.3 83,20.7 81.6,20.8 C80.7,20.3 79.8,19.8 79.1,19.1 C81.1,19.3 84.7,19.4 87.4,17 C88.5,16 88.8,14.8 89,14 C88.4,15.4 87.4,16.5 86.6,17 C85.4,17.8 84.2,18 84.1,18.1 C82.1,18.5 80.9,18.4 79.5,18.1 C78.8,18 78.2,17.8 77.6,17.5 C76.9,16.6 76.4,15.6 76.1,14.5 C77.3,15.5 79.5,17.1 82.4,17 C84.8,16.9 86.4,15.8 87.1,15 C86.7,15.3 86.3,15.4 85.9,15.6 C84.7,16.1 83.4,16.7 80.9,16.3 C78.7,15.9 76.8,14.1 75.7,12.8 C75.6,12.3 75.6,11.9 75.6,11.4 C75.6,10.9 75.6,10.4 75.7,10 C77,13.1 80.3,15.5 83.1,15.5 C84.1,15.5 84.9,15.3 85.4,15.1 C83.9,15.4 82.5,15.3 81.3,14.8 C80,14.3 78.8,13.1 78.8,13.1 C78.7,13 78.7,13 78.6,12.9 C77.1,11.4 76.6,9.2 76.4,7.5 C76.8,6.5 77.3,5.7 77.9,4.9 C77.6,7.2 78,10.1 79.3,11.9 C80.6,13.7 82.7,14.4 83.7,14.4 C82.7,14 80.5,13 79.4,11.1 C78.7,9.7 78.4,8.2 78.5,6.5 C78.6,5.4 78.9,4.3 79.2,3.5 C80.2,2.6 81.4,1.9 82.8,1.5 L82.5,1.8 C81.5,2.9 79.6,5.2 79.9,8.1 C80.2,11.3 81.9,12.4 82.6,12.8 C81.5,11.8 80.5,10.1 80.5,8 C80.5,6.4 81.1,4.9 82.2,3.5 C83.1,2.4 84.1,1.5 84.8,1 C85.2,0.9 85.7,0.9 86.1,0.9 C86.9,0.9 87.6,1 88.3,1.1 L87.6,1.4 C83.6,2.9 81.7,5.6 81.7,8.3 C81.7,9.6 82,10.3 82.5,11.3 C82.2,10.4 82,9.3 82.1,8 C82.3,6.5 83.1,5.4 84,4.5 C85.5,3.1 87.7,2.2 90.6,2 C91.6,2.5 92.5,3.1 93.3,3.8 L92.9,3.8 C91.8,3.7 90.2,3.5 88.2,3.8 L87.7,3.9 C87.6,3.9 82.6,4.8 83,9.4 Z" id="Shape"></path>
                </g>
            </g>
        </g>
    </g>
</svg>