<?xml version="1.0" encoding="UTF-8"?>
<svg width="124px" height="60px" viewBox="0 0 124 60" version="1.1" xmlns="http://www.w3.org/2000/svg" xmlns:xlink="http://www.w3.org/1999/xlink">
    <!-- Generator: Sketch 48.2 (47327) - http://www.bohemiancoding.com/sketch -->
    <title>Pattern</title>
    <desc>Created with Sketch.</desc>
    <defs></defs>
    <g id="Contact-Us" stroke="none" stroke-width="1" fill="none" fill-rule="evenodd" transform="translate(-167.000000, -1075.000000)" opacity="0.800000012">
        <g id="Get-In-Touch" transform="translate(0.000000, 985.000000)" fill="#D8D8D8">
            <g id="Contact-Address" transform="translate(167.000000, 90.000000)">
                <g id="Headline">
                    <g id="Pattern">
                        <rect id="Rectangle-39" x="0" y="0" width="4" height="4"></rect>
                        <rect id="Rectangle-39-Copy-16" x="0" y="8" width="4" height="4"></rect>
                        <rect id="Rectangle-39-Copy" x="8" y="0" width="4" height="4"></rect>
                        <rect id="Rectangle-39-Copy-17" x="8" y="8" width="4" height="4"></rect>
                        <rect id="Rectangle-39-Copy-2" x="16" y="0" width="4" height="4"></rect>
                        <rect id="Rectangle-39-Copy-18" x="16" y="8" width="4" height="4"></rect>
                        <rect id="Rectangle-39-Copy-3" x="24" y="0" width="4" height="4"></rect>
                        <rect id="Rectangle-39-Copy-19" x="24" y="8" width="4" height="4"></rect>
                        <rect id="Rectangle-39-Copy-4" x="32" y="0" width="4" height="4"></rect>
                        <rect id="Rectangle-39-Copy-20" x="32" y="8" width="4" height="4"></rect>
                        <rect id="Rectangle-39-Copy-5" x="40" y="0" width="4" height="4"></rect>
                        <rect id="Rectangle-39-Copy-21" x="40" y="8" width="4" height="4"></rect>
                        <rect id="Rectangle-39-Copy-6" x="48" y="0" width="4" height="4"></rect>
                        <rect id="Rectangle-39-Copy-22" x="48" y="8" width="4" height="4"></rect>
                        <rect id="Rectangle-39-Copy-7" x="56" y="0" width="4" height="4"></rect>
                        <rect id="Rectangle-39-Copy-23" x="56" y="8" width="4" height="4"></rect>
                        <rect id="Rectangle-39-Copy-8" x="64" y="0" width="4" height="4"></rect>
                        <rect id="Rectangle-39-Copy-24" x="64" y="8" width="4" height="4"></rect>
                        <rect id="Rectangle-39-Copy-9" x="72" y="0" width="4" height="4"></rect>
                        <rect id="Rectangle-39-Copy-25" x="72" y="8" width="4" height="4"></rect>
                        <rect id="Rectangle-39-Copy-10" x="80" y="0" width="4" height="4"></rect>
                        <rect id="Rectangle-39-Copy-26" x="80" y="8" width="4" height="4"></rect>
                        <rect id="Rectangle-39-Copy-11" x="88" y="0" width="4" height="4"></rect>
                        <rect id="Rectangle-39-Copy-27" x="88" y="8" width="4" height="4"></rect>
                        <rect id="Rectangle-39-Copy-12" x="96" y="0" width="4" height="4"></rect>
                        <rect id="Rectangle-39-Copy-28" x="96" y="8" width="4" height="4"></rect>
                        <rect id="Rectangle-39-Copy-13" x="104" y="0" width="4" height="4"></rect>
                        <rect id="Rectangle-39-Copy-29" x="104" y="8" width="4" height="4"></rect>
                        <rect id="Rectangle-39-Copy-14" x="112" y="0" width="4" height="4"></rect>
                        <rect id="Rectangle-39-Copy-30" x="112" y="8" width="4" height="4"></rect>
                        <rect id="Rectangle-39-Copy-15" x="120" y="0" width="4" height="4"></rect>
                        <rect id="Rectangle-39-Copy-31" x="120" y="8" width="4" height="4"></rect>
                        <rect id="Rectangle-39-Copy-47" x="0" y="16" width="4" height="4"></rect>
                        <rect id="Rectangle-39-Copy-46" x="8" y="16" width="4" height="4"></rect>
                        <rect id="Rectangle-39-Copy-45" x="16" y="16" width="4" height="4"></rect>
                        <rect id="Rectangle-39-Copy-44" x="24" y="16" width="4" height="4"></rect>
                        <rect id="Rectangle-39-Copy-43" x="32" y="16" width="4" height="4"></rect>
                        <rect id="Rectangle-39-Copy-42" x="40" y="16" width="4" height="4"></rect>
                        <rect id="Rectangle-39-Copy-41" x="48" y="16" width="4" height="4"></rect>
                        <rect id="Rectangle-39-Copy-40" x="56" y="16" width="4" height="4"></rect>
                        <rect id="Rectangle-39-Copy-39" x="64" y="16" width="4" height="4"></rect>
                        <rect id="Rectangle-39-Copy-38" x="72" y="16" width="4" height="4"></rect>
                        <rect id="Rectangle-39-Copy-37" x="80" y="16" width="4" height="4"></rect>
                        <rect id="Rectangle-39-Copy-36" x="88" y="16" width="4" height="4"></rect>
                        <rect id="Rectangle-39-Copy-35" x="96" y="16" width="4" height="4"></rect>
                        <rect id="Rectangle-39-Copy-34" x="104" y="16" width="4" height="4"></rect>
                        <rect id="Rectangle-39-Copy-33" x="112" y="16" width="4" height="4"></rect>
                        <rect id="Rectangle-39-Copy-32" x="120" y="16" width="4" height="4"></rect>
                        <rect id="Rectangle-39-Copy-63" x="0" y="24" width="4" height="4"></rect>
                        <rect id="Rectangle-39-Copy-62" x="8" y="24" width="4" height="4"></rect>
                        <rect id="Rectangle-39-Copy-61" x="16" y="24" width="4" height="4"></rect>
                        <rect id="Rectangle-39-Copy-60" x="24" y="24" width="4" height="4"></rect>
                        <rect id="Rectangle-39-Copy-59" x="32" y="24" width="4" height="4"></rect>
                        <rect id="Rectangle-39-Copy-58" x="40" y="24" width="4" height="4"></rect>
                        <rect id="Rectangle-39-Copy-57" x="48" y="24" width="4" height="4"></rect>
                        <rect id="Rectangle-39-Copy-56" x="56" y="24" width="4" height="4"></rect>
                        <rect id="Rectangle-39-Copy-55" x="64" y="24" width="4" height="4"></rect>
                        <rect id="Rectangle-39-Copy-54" x="72" y="24" width="4" height="4"></rect>
                        <rect id="Rectangle-39-Copy-53" x="80" y="24" width="4" height="4"></rect>
                        <rect id="Rectangle-39-Copy-52" x="88" y="24" width="4" height="4"></rect>
                        <rect id="Rectangle-39-Copy-51" x="96" y="24" width="4" height="4"></rect>
                        <rect id="Rectangle-39-Copy-50" x="104" y="24" width="4" height="4"></rect>
                        <rect id="Rectangle-39-Copy-49" x="112" y="24" width="4" height="4"></rect>
                        <rect id="Rectangle-39-Copy-48" x="120" y="24" width="4" height="4"></rect>
                        <rect id="Rectangle-39-Copy-79" x="0" y="32" width="4" height="4"></rect>
                        <rect id="Rectangle-39-Copy-78" x="8" y="32" width="4" height="4"></rect>
                        <rect id="Rectangle-39-Copy-77" x="16" y="32" width="4" height="4"></rect>
                        <rect id="Rectangle-39-Copy-76" x="24" y="32" width="4" height="4"></rect>
                        <rect id="Rectangle-39-Copy-75" x="32" y="32" width="4" height="4"></rect>
                        <rect id="Rectangle-39-Copy-74" x="40" y="32" width="4" height="4"></rect>
                        <rect id="Rectangle-39-Copy-73" x="48" y="32" width="4" height="4"></rect>
                        <rect id="Rectangle-39-Copy-72" x="56" y="32" width="4" height="4"></rect>
                        <rect id="Rectangle-39-Copy-71" x="64" y="32" width="4" height="4"></rect>
                        <rect id="Rectangle-39-Copy-70" x="72" y="32" width="4" height="4"></rect>
                        <rect id="Rectangle-39-Copy-69" x="80" y="32" width="4" height="4"></rect>
                        <rect id="Rectangle-39-Copy-68" x="88" y="32" width="4" height="4"></rect>
                        <rect id="Rectangle-39-Copy-67" x="96" y="32" width="4" height="4"></rect>
                        <rect id="Rectangle-39-Copy-66" x="104" y="32" width="4" height="4"></rect>
                        <rect id="Rectangle-39-Copy-65" x="112" y="32" width="4" height="4"></rect>
                        <rect id="Rectangle-39-Copy-64" x="120" y="32" width="4" height="4"></rect>
                        <rect id="Rectangle-39-Copy-95" x="0" y="40" width="4" height="4"></rect>
                        <rect id="Rectangle-39-Copy-94" x="8" y="40" width="4" height="4"></rect>
                        <rect id="Rectangle-39-Copy-93" x="16" y="40" width="4" height="4"></rect>
                        <rect id="Rectangle-39-Copy-92" x="24" y="40" width="4" height="4"></rect>
                        <rect id="Rectangle-39-Copy-91" x="32" y="40" width="4" height="4"></rect>
                        <rect id="Rectangle-39-Copy-90" x="40" y="40" width="4" height="4"></rect>
                        <rect id="Rectangle-39-Copy-89" x="48" y="40" width="4" height="4"></rect>
                        <rect id="Rectangle-39-Copy-88" x="56" y="40" width="4" height="4"></rect>
                        <rect id="Rectangle-39-Copy-87" x="64" y="40" width="4" height="4"></rect>
                        <rect id="Rectangle-39-Copy-86" x="72" y="40" width="4" height="4"></rect>
                        <rect id="Rectangle-39-Copy-85" x="80" y="40" width="4" height="4"></rect>
                        <rect id="Rectangle-39-Copy-84" x="88" y="40" width="4" height="4"></rect>
                        <rect id="Rectangle-39-Copy-83" x="96" y="40" width="4" height="4"></rect>
                        <rect id="Rectangle-39-Copy-82" x="104" y="40" width="4" height="4"></rect>
                        <rect id="Rectangle-39-Copy-81" x="112" y="40" width="4" height="4"></rect>
                        <rect id="Rectangle-39-Copy-80" x="120" y="40" width="4" height="4"></rect>
                        <rect id="Rectangle-39-Copy-111" x="0" y="48" width="4" height="4"></rect>
                        <rect id="Rectangle-39-Copy-110" x="8" y="48" width="4" height="4"></rect>
                        <rect id="Rectangle-39-Copy-109" x="16" y="48" width="4" height="4"></rect>
                        <rect id="Rectangle-39-Copy-108" x="24" y="48" width="4" height="4"></rect>
                        <rect id="Rectangle-39-Copy-107" x="32" y="48" width="4" height="4"></rect>
                        <rect id="Rectangle-39-Copy-106" x="40" y="48" width="4" height="4"></rect>
                        <rect id="Rectangle-39-Copy-105" x="48" y="48" width="4" height="4"></rect>
                        <rect id="Rectangle-39-Copy-104" x="56" y="48" width="4" height="4"></rect>
                        <rect id="Rectangle-39-Copy-103" x="64" y="48" width="4" height="4"></rect>
                        <rect id="Rectangle-39-Copy-102" x="72" y="48" width="4" height="4"></rect>
                        <rect id="Rectangle-39-Copy-101" x="80" y="48" width="4" height="4"></rect>
                        <rect id="Rectangle-39-Copy-100" x="88" y="48" width="4" height="4"></rect>
                        <rect id="Rectangle-39-Copy-99" x="96" y="48" width="4" height="4"></rect>
                        <rect id="Rectangle-39-Copy-98" x="104" y="48" width="4" height="4"></rect>
                        <rect id="Rectangle-39-Copy-97" x="112" y="48" width="4" height="4"></rect>
                        <rect id="Rectangle-39-Copy-96" x="120" y="48" width="4" height="4"></rect>
                        <rect id="Rectangle-39-Copy-127" x="0" y="56" width="4" height="4"></rect>
                        <rect id="Rectangle-39-Copy-126" x="8" y="56" width="4" height="4"></rect>
                        <rect id="Rectangle-39-Copy-125" x="16" y="56" width="4" height="4"></rect>
                        <rect id="Rectangle-39-Copy-124" x="24" y="56" width="4" height="4"></rect>
                        <rect id="Rectangle-39-Copy-123" x="32" y="56" width="4" height="4"></rect>
                        <rect id="Rectangle-39-Copy-122" x="40" y="56" width="4" height="4"></rect>
                        <rect id="Rectangle-39-Copy-121" x="48" y="56" width="4" height="4"></rect>
                        <rect id="Rectangle-39-Copy-120" x="56" y="56" width="4" height="4"></rect>
                        <rect id="Rectangle-39-Copy-119" x="64" y="56" width="4" height="4"></rect>
                        <rect id="Rectangle-39-Copy-118" x="72" y="56" width="4" height="4"></rect>
                        <rect id="Rectangle-39-Copy-117" x="80" y="56" width="4" height="4"></rect>
                        <rect id="Rectangle-39-Copy-116" x="88" y="56" width="4" height="4"></rect>
                        <rect id="Rectangle-39-Copy-115" x="96" y="56" width="4" height="4"></rect>
                        <rect id="Rectangle-39-Copy-114" x="104" y="56" width="4" height="4"></rect>
                        <rect id="Rectangle-39-Copy-113" x="112" y="56" width="4" height="4"></rect>
                        <rect id="Rectangle-39-Copy-112" x="120" y="56" width="4" height="4"></rect>
                    </g>
                </g>
            </g>
        </g>
    </g>
</svg>